<svg width="96" height="96" viewBox="0 0 96 96" fill="none" xmlns="http://www.w3.org/2000/svg">
<path d="M10 34C10 30.6863 12.6863 28 16 28H80C83.3137 28 86 30.6863 86 34V76C86 79.3137 83.3137 82 80 82H18C13.5817 82 10 78.4183 10 74V34Z" fill="#021024" fill-opacity="0.1"/>
<path fill-rule="evenodd" clip-rule="evenodd" d="M18 22C13.5817 22 10 25.5817 10 30V34V36V70C10 74.4183 13.5817 78 18 78H78C80.2091 78 82 76.2091 82 74V34C82 31.7909 80.2091 30 78 30V26C78 23.7909 76.2091 22 74 22H18Z" fill="#6156E0"/>
<path fill-rule="evenodd" clip-rule="evenodd" d="M8 30C8 24.4772 12.4772 20 18 20H74C77.3137 20 80 22.6863 80 26V28.3414C82.3304 29.1651 84 31.3876 84 34V74C84 77.3137 81.3137 80 78 80H18C12.4772 80 8 75.5228 8 70V30ZM78 30C80.2091 30 82 31.7909 82 34V74C82 76.2091 80.2091 78 78 78H18C13.5817 78 10 74.4183 10 70V30C10 25.5817 13.5817 22 18 22H74C76.2091 22 78 23.7909 78 26V30Z" fill="#22179B"/>
<path fill-rule="evenodd" clip-rule="evenodd" d="M12 32C12.5523 32 13 32.4477 13 33V71C13 71.5523 12.5523 72 12 72C11.4477 72 11 71.5523 11 71V33C11 32.4477 11.4477 32 12 32Z" fill="#B982FF"/>
<path fill-rule="evenodd" clip-rule="evenodd" d="M12 32C12.5523 32 13 32.4477 13 33V48C13 48.5523 12.5523 49 12 49C11.4477 49 11 48.5523 11 48V33C11 32.4477 11.4477 32 12 32Z" fill="#829DFF"/>
<path fill-rule="evenodd" clip-rule="evenodd" d="M17 38C17 37.4477 17.4477 37 18 37H36C36.5523 37 37 37.4477 37 38C37 38.5523 36.5523 39 36 39H18C17.4477 39 17 38.5523 17 38Z" fill="#52D5FF"/>
<path fill-rule="evenodd" clip-rule="evenodd" d="M17 46C17 45.4477 17.4477 45 18 45H28C28.5523 45 29 45.4477 29 46C29 46.5523 28.5523 47 28 47H18C17.4477 47 17 46.5523 17 46Z" fill="#52D5FF"/>
<path fill-rule="evenodd" clip-rule="evenodd" d="M17 70C17 69.4477 17.4477 69 18 69H28C28.5523 69 29 69.4477 29 70C29 70.5523 28.5523 71 28 71H18C17.4477 71 17 70.5523 17 70Z" fill="#52D5FF"/>
<path fill-rule="evenodd" clip-rule="evenodd" d="M39 54C39 53.4477 39.4477 53 40 53H46C46.1974 53 46.3904 53.0584 46.5547 53.1679L52.5547 57.1679C53.0142 57.4743 53.1384 58.0952 52.8321 58.5547C52.5257 59.0142 51.9048 59.1384 51.4453 58.8321L45.6972 55H40C39.4477 55 39 54.5523 39 54Z" fill="#52D5FF"/>
<path fill-rule="evenodd" clip-rule="evenodd" d="M17 62C17 61.4477 17.4477 61 18 61H36C36.2084 61 36.4116 61.0651 36.5812 61.1863L43.5812 66.1863C44.0307 66.5073 44.1347 67.1318 43.8137 67.5812C43.4927 68.0307 42.8682 68.1347 42.4188 67.8137L35.6795 63H18C17.4477 63 17 62.5523 17 62Z" fill="#52D5FF"/>
<path fill-rule="evenodd" clip-rule="evenodd" d="M43.4453 45.1679C43.6096 45.0584 43.8026 45 44 45H55C55.5523 45 56 45.4477 56 46C56 46.5523 55.5523 47 55 47H44.3028L32.5547 54.8321C32.3904 54.9416 32.1974 55 32 55H18C17.4477 55 17 54.5523 17 54C17 53.4477 17.4477 53 18 53H31.6972L43.4453 45.1679Z" fill="#52D5FF"/>
<path fill-rule="evenodd" clip-rule="evenodd" d="M57 49C58.6569 49 60 47.6569 60 46C60 44.3431 58.6569 43 57 43C55.3431 43 54 44.3431 54 46C54 47.6569 55.3431 49 57 49ZM57 47C57.5523 47 58 46.5523 58 46C58 45.4477 57.5523 45 57 45C56.4477 45 56 45.4477 56 46C56 46.5523 56.4477 47 57 47Z" fill="#52D5FF"/>
<path fill-rule="evenodd" clip-rule="evenodd" d="M54 62C55.6569 62 57 60.6569 57 59C57 57.3431 55.6569 56 54 56C52.3431 56 51 57.3431 51 59C51 60.6569 52.3431 62 54 62ZM54 60C54.5523 60 55 59.5523 55 59C55 58.4477 54.5523 58 54 58C53.4477 58 53 58.4477 53 59C53 59.5523 53.4477 60 54 60Z" fill="#52D5FF"/>
<path fill-rule="evenodd" clip-rule="evenodd" d="M45 71C46.6569 71 48 69.6569 48 68C48 66.3431 46.6569 65 45 65C43.3431 65 42 66.3431 42 68C42 69.6569 43.3431 71 45 71ZM45 69C45.5523 69 46 68.5523 46 68C46 67.4477 45.5523 67 45 67C44.4477 67 44 67.4477 44 68C44 68.5523 44.4477 69 45 69Z" fill="#52D5FF"/>
<path fill-rule="evenodd" clip-rule="evenodd" d="M30 49C31.6569 49 33 47.6569 33 46C33 44.3431 31.6569 43 30 43C28.3431 43 27 44.3431 27 46C27 47.6569 28.3431 49 30 49ZM30 47C30.5523 47 31 46.5523 31 46C31 45.4477 30.5523 45 30 45C29.4477 45 29 45.4477 29 46C29 46.5523 29.4477 47 30 47Z" fill="#52D5FF"/>
<path fill-rule="evenodd" clip-rule="evenodd" d="M30 73C31.6569 73 33 71.6569 33 70C33 68.3431 31.6569 67 30 67C28.3431 67 27 68.3431 27 70C27 71.6569 28.3431 73 30 73ZM30 71C30.5523 71 31 70.5523 31 70C31 69.4477 30.5523 69 30 69C29.4477 69 29 69.4477 29 70C29 70.5523 29.4477 71 30 71Z" fill="#52D5FF"/>
<path fill-rule="evenodd" clip-rule="evenodd" d="M38 41C39.6569 41 41 39.6569 41 38C41 36.3431 39.6569 35 38 35C36.3431 35 35 36.3431 35 38C35 39.6569 36.3431 41 38 41ZM38 39C38.5523 39 39 38.5523 39 38C39 37.4477 38.5523 37 38 37C37.4477 37 37 37.4477 37 38C37 38.5523 37.4477 39 38 39Z" fill="#52D5FF"/>
<path d="M74 22H17C15.3431 22 14 23.3432 14 25C14 26.6569 15.3432 28 17 28H78V26C78 23.7909 76.2092 22 74 22Z" fill="#4B41BE"/>
<path d="M78 30V26H16C14.8954 26 14 26.8954 14 28C14 29.1046 14.8954 30 16 30H78Z" fill="#382EA7"/>
<path fill-rule="evenodd" clip-rule="evenodd" d="M17 22C15.3431 22 14 23.3431 14 25C14 26.6569 15.3431 28 17 28H79C79.5523 28 80 28.4477 80 29C80 29.5523 79.5523 30 79 30H17C14.2386 30 12 27.7614 12 25C12 22.2386 14.2386 20 17 20H34C34.5523 20 35 20.4477 35 21C35 21.5523 34.5523 22 34 22H17Z" fill="#22179B"/>
<path d="M64 68C64 68.5523 63.5523 69 63 69C62.4477 69 62 68.5523 62 68C62 67.4477 62.4477 67 63 67C63.5523 67 64 67.4477 64 68Z" fill="#4438CE"/>
<path d="M68 67C68 67.5523 67.5523 68 67 68C66.4477 68 66 67.5523 66 67C66 66.4477 66.4477 66 67 66C67.5523 66 68 66.4477 68 67Z" fill="#4438CE"/>
<path d="M69 70.5C69 71.3284 68.3284 72 67.5 72C66.6716 72 66 71.3284 66 70.5C66 69.6716 66.6716 69 67.5 69C68.3284 69 69 69.6716 69 70.5Z" fill="#4438CE"/>
<path d="M79 72.5C79 73.3284 78.3284 74 77.5 74C76.6716 74 76 73.3284 76 72.5C76 71.6716 76.6716 71 77.5 71C78.3284 71 79 71.6716 79 72.5Z" fill="#4438CE"/>
<path d="M65 72.5C65 73.3284 64.3284 74 63.5 74C62.6716 74 62 73.3284 62 72.5C62 71.6716 62.6716 71 63.5 71C64.3284 71 65 71.6716 65 72.5Z" fill="#4438CE"/>
<path d="M59 71C59 71.5523 58.5523 72 58 72C57.4477 72 57 71.5523 57 71C57 70.4477 57.4477 70 58 70C58.5523 70 59 70.4477 59 71Z" fill="#4438CE"/>
<path d="M55 74C55 74.5523 54.5523 75 54 75C53.4477 75 53 74.5523 53 74C53 73.4477 53.4477 73 54 73C54.5523 73 55 73.4477 55 74Z" fill="#4438CE"/>
<path d="M79 62C79 62.5523 78.5523 63 78 63C77.4477 63 77 62.5523 77 62C77 61.4477 77.4477 61 78 61C78.5523 61 79 61.4477 79 62Z" fill="#4438CE"/>
<path d="M71 63C71 63.5523 70.5523 64 70 64C69.4477 64 69 63.5523 69 63C69 62.4477 69.4477 62 70 62C70.5523 62 71 62.4477 71 63Z" fill="#4438CE"/>
<path d="M67 75C67 75.5523 66.5523 76 66 76C65.4477 76 65 75.5523 65 75C65 74.4477 65.4477 74 66 74C66.5523 74 67 74.4477 67 75Z" fill="#4438CE"/>
<path d="M60 75C60 75.5523 59.5523 76 59 76C58.4477 76 58 75.5523 58 75C58 74.4477 58.4477 74 59 74C59.5523 74 60 74.4477 60 75Z" fill="#4438CE"/>
<path d="M72 68C72 68.5523 71.5523 69 71 69C70.4477 69 70 68.5523 70 68C70 67.4477 70.4477 67 71 67C71.5523 67 72 67.4477 72 68Z" fill="#4438CE"/>
<path d="M75 70C75 70.5523 74.5523 71 74 71C73.4477 71 73 70.5523 73 70C73 69.4477 73.4477 69 74 69C74.5523 69 75 69.4477 75 70Z" fill="#4438CE"/>
<path d="M80 67C80 67.5523 79.5523 68 79 68C78.4477 68 78 67.5523 78 67C78 66.4477 78.4477 66 79 66C79.5523 66 80 66.4477 80 67Z" fill="#4438CE"/>
<path d="M76 65.5C76 66.3284 75.3284 67 74.5 67C73.6716 67 73 66.3284 73 65.5C73 64.6716 73.6716 64 74.5 64C75.3284 64 76 64.6716 76 65.5Z" fill="#4438CE"/>
<path d="M71 73C71 73.5523 70.5523 74 70 74C69.4477 74 69 73.5523 69 73C69 72.4477 69.4477 72 70 72C70.5523 72 71 72.4477 71 73Z" fill="#4438CE"/>
<path d="M74 75C74 75.5523 73.5523 76 73 76C72.4477 76 72 75.5523 72 75C72 74.4477 72.4477 74 73 74C73.5523 74 74 74.4477 74 75Z" fill="#4438CE"/>
<path d="M62 55C62 52.2386 64.2386 50 67 50H84C85.1046 50 86 50.8954 86 52V58C86 59.1046 85.1046 60 84 60H67C64.2386 60 62 57.7614 62 55Z" fill="#8176FF"/>
<path fill-rule="evenodd" clip-rule="evenodd" d="M67 48H84C86.2091 48 88 49.7909 88 52V58C88 60.2091 86.2091 62 84 62H67C63.134 62 60 58.866 60 55C60 51.134 63.134 48 67 48ZM67 50C64.2386 50 62 52.2386 62 55C62 57.7614 64.2386 60 67 60H84C85.1046 60 86 59.1046 86 58V52C86 50.8954 85.1046 50 84 50H67Z" fill="#22179B"/>
<path fill-rule="evenodd" clip-rule="evenodd" d="M62 55C62 52.2386 64.2386 50 67 50H83C83.5523 50 84 50.4477 84 51C84 51.5523 83.5523 52 83 52H67C65.3431 52 64 53.3431 64 55H62Z" fill="#D7A5FF"/>
<path fill-rule="evenodd" clip-rule="evenodd" d="M62 55C62 52.2386 64.2386 50 67 50H68C68.5523 50 69 50.4477 69 51C69 51.5523 68.5523 52 68 52H67C65.3431 52 64 53.3431 64 55V56C64 56.5523 63.5523 57 63 57C62.4477 57 62 56.5523 62 56V55Z" fill="#C4E2FF"/>
<path d="M70 55C70 56.6569 68.6569 58 67 58C65.3431 58 64 56.6569 64 55C64 53.3431 65.3431 52 67 52C68.6569 52 70 53.3431 70 55Z" fill="#22179B"/>
<path fill-rule="evenodd" clip-rule="evenodd" d="M16 23C16 22.4477 16.4477 22 17 22H72C72.5523 22 73 22.4477 73 23C73 23.5523 72.5523 24 72 24H17C16.4477 24 16 23.5523 16 23Z" fill="#6156E0"/>
<path fill-rule="evenodd" clip-rule="evenodd" d="M17 31C17 30.4477 17.4477 30 18 30H76C76.5523 30 77 30.4477 77 31C77 31.5523 76.5523 32 76 32H18C17.4477 32 17 31.5523 17 31Z" fill="#D7A5FF"/>
<path fill-rule="evenodd" clip-rule="evenodd" d="M11.9855 27.1425C12.4591 26.8584 13.0734 27.0119 13.3575 27.4855C14.0153 28.5819 14.7461 29.1863 15.4854 29.5313C16.24 29.8835 17.0777 30 18 30H32C32.5523 30 33 30.4477 33 31C33 31.5523 32.5523 32 32 32H18C16.9223 32 15.76 31.8665 14.6396 31.3437C13.504 30.8137 12.4847 29.9181 11.6425 28.5145C11.3584 28.0409 11.512 27.4267 11.9855 27.1425Z" fill="#C3E2FF"/>
</svg>
